#!OML:ASF I:\Random Stuff\random\construction\7_22_03\Session 2\subj1.ASF
:FULLY-SPECIFIED
:DEGREES
1086
root -17.4563 17.6643 2.71284 -356.12 108.459 -364.123
lowerback 4.88086 3.34141 5.59049
upperback 2.22196 4.74016 -0.176421
thorax 0.0311339 2.43766 -3.51178
lowerneck -22.3634 0.474256 2.63572
upperneck 41.6685 1.22207 1.73357
head 20.1478 1.88234 0.948411
rclavicle -7.196e-014 -3.18055e-014
rhumerus -33.4004 2.85512 -71.7307
rradius 42.4168
rwrist 0.703648
rhand -18.3614 17.7645
rfingers 7.12502
rthumb 7.9215 -12.0671
lclavicle -7.196e-014 -3.18055e-014
lhumerus -35.6184 -5.97614 88.3077
lradius 28.7499
lwrist 19.1356
lhand -20.291 51.7182
lfingers 7.12502
lthumb 6.05885 81.6116
rfemur 7.78653 13.4685 26.054
rtibia 1.43125e-014
rfoot -6.61364 -28.0313
rtoes -6.90808
lfemur -34.2709 -0.27246 -18.0723
ltibia 36.8513
lfoot -14.9377 2.89338
ltoes -14.5456
1087
root -17.531 17.6627 2.72112 -357.315 108.319 -365.506
lowerback 4.83858 3.28322 5.41076
upperback 2.02293 4.65186 -0.177983
thorax -0.174616 2.37944 -3.41692
lowerneck -22.3225 0.441239 2.15476
upperneck 41.5171 1.24305 1.98067
head 20.0273 1.83862 1.15339
rclavicle -2.16675e-014 -7.15625e-015
rhumerus -33.4593 2.25011 -71.7265
rradius 40.8539
rwrist 1.08043
rhand -17.8158 17.3885
rfingers 7.12502
rthumb 8.44807 -12.4225
lclavicle -2.16675e-014 -7.15625e-015
lhumerus -36.1906 -5.74331 88.3957
lradius 27.594
lwrist 19.7121
lhand -20.3884 51.5183
lfingers 7.12502
lthumb 5.96486 81.4144
rfemur 4.87528 14.766 25.9186
rtibia 5.24193
rfoot -9.6618 -29.6779
rtoes -4.66703
lfemur -33.7673 -0.172595 -18.3596
ltibia 37.6955
lfoot -15.2746 2.49211
ltoes -14.3676
1088
root -17.603 17.6614 2.72586 -358.621 108.086 -366.937
lowerback 4.84058 3.22043 5.20363
upperback 1.85365 4.55912 -0.175035
thorax -0.376568 2.3207 -3.30349
lowerneck -22.3143 0.402611 1.75657
upperneck 41.3997 1.2715 2.10483
head 19.9411 1.79381 1.28507
rclavicle -1.39149e-014 -3.97569e-015
rhumerus -33.4765 1.63921 -71.6909
rradius 39.2769
rwrist 1.57239
rhand -17.3541 16.7364
rfingers 7.12502
rthumb 8.89363 -13.0562
lclavicle -1.39149e-014 -3.97569e-015
lhumerus -36.7787 -4.89296 88.1741
lradius 26.643
lwrist 19.7991
lhand -19.6857 52.3936
lfingers 7.12502
lthumb 6.64319 82.2694
rfemur 3.41443 16.1604 25.4097
rtibia 7.54695
rfoot -10.7321 -30.873
rtoes -3.96138
lfemur -33.1199 0.0574595 -18.6119
ltibia 38.4307
lfoot -15.6399 2.00015
ltoes -13.9754
1089
root -17.6723 17.6563 2.72692 -359.691 107.834 -368.12
lowerback 4.80739 3.1293 5.00905
upperback 1.69247 4.42854 -0.0939915
thorax -0.558479 2.24449 -3.11227
lowerneck -22.2967 0.34044 1.44271
upperneck 41.2751 1.36265 1.90816
head 19.8507 1.73806 1.25486
rclavicle -2.24627e-014 -1.03368e-014
rhumerus -33.517 1.10967 -71.5728
rradius 37.765
rwrist 2.04744
rhand -17.3347 16.6756
rfingers 7.12502
rthumb 8.91237 -13.1162
lclavicle -2.24627e-014 -1.03368e-014
lhumerus -37.3107 -3.77974 87.8588
lradius 25.6582
lwrist 19.5907
lhand -19.0308 53.1084
lfingers 7.12502
lthumb 7.27542 82.9633
rfemur 2.20515 17.5851 24.8508
rtibia 9.20023
rfoot -10.8422 -32.0656
rtoes -6.02381
lfemur -32.4314 0.164359 -18.6826
ltibia 39.0614
lfoot -15.9708 1.77579
ltoes -14.0118
1090
root -17.7369 17.648 2.72535 -360.51 107.614 -369.03
lowerback 4.79884 3.0635 4.8941
upperback 1.54649 4.33713 -0.0205731
thorax -0.727036 2.18973 -2.97508
lowerneck -22.2664 0.323236 1.27451
upperneck 41.0081 1.43302 1.71562
head 19.6683 1.69355 1.1893
rclavicle 1.92821e-014 -8.74653e-015
rhumerus -33.6521 0.454091 -71.4538
rradius 36.4038
rwrist 2.42973
rhand -17.6017 17.1162
rfingers 7.12502
rthumb 8.65477 -12.6864
lclavicle 1.92821e-014 -8.74653e-015
lhumerus -37.7833 -2.99791 87.5931
lradius 24.7608
lwrist 19.3172
lhand -19.2536 53.0298
lfingers 7.12502
lthumb 7.06038 82.892
rfemur 1.14595 18.9746 24.3361
rtibia 10.5581
rfoot -10.7971 -33.336
rtoes -7.79075
lfemur -31.6836 -0.0718813 -18.5232
ltibia 39.5821
lfoot -16.2064 1.73117
ltoes -14.0537
1091
root -17.7976 17.6397 2.72326 -361.335 107.417 -369.903
lowerback 4.88444 3.2173 5.00988
upperback 1.32522 4.54984 -0.228762
thorax -0.958067 2.28401 -3.27617
lowerneck -22.0901 0.144916 1.28081
upperneck 40.7452 0.993924 1.98684
head 19.4538 1.56161 1.20863
rclavicle 6.71892e-014 -1.90833e-014
rhumerus -34.2264 -1.17269 -71.3855
rradius 35.1423
rwrist 2.96211
rhand -17.779 17.3008
rfingers 7.12502
rthumb 8.4836 -12.5088
lclavicle 6.71892e-014 -1.90833e-014
lhumerus -38.2972 -3.52079 87.4047
lradius 23.982
lwrist 19.0707
lhand -19.5687 52.6842
lfingers 7.12502
lthumb 6.75617 82.5564
rfemur 0.336232 18.5615 23.8476
rtibia 11.6158
rfoot -11.5736 -32.8196
rtoes -6.8836
lfemur -30.854 -0.376542 -18.2885
ltibia 39.9803
lfoot -16.3644 1.52458
ltoes -13.9445
1092
root -17.8532 17.6321 2.72214 -361.968 107.246 -370.532
lowerback 4.89307 3.1238 4.83372
upperback 1.26461 4.41945 -0.134473
thorax -1.05856 2.21448 -3.0794
lowerneck -22.2109 0.111055 1.23757
upperneck 40.476 1.02802 1.65309
head 19.319 1.49763 1.04669
rclavicle -6.10269e-014 -2.46493e-014
rhumerus -34.2321 -2.00737 -71.2341
rradius 33.8543
rwrist 3.48168
rhand -17.7217 17.113
rfingers 7.12502
rthumb 8.53887 -12.6943
lclavicle -6.10269e-014 -2.46493e-014
lhumerus -38.5495 -3.07612 87.2264
lradius 23.4361
lwrist 18.8652
lhand -18.8481 52.5743
lfingers 7.12502
lthumb 7.4518 82.4231
rfemur -0.244959 18.6201 23.5372
rtibia 12.4413
rfoot -12.1318 -32.7141
rtoes -5.86311
lfemur -29.9746 -0.466502 -17.9937
ltibia 40.2267
lfoot -16.4269 1.13736
ltoes -14.4436
